<svg width="1920" height="1080" viewBox="0 0 1920 1080" fill="none" xmlns="http://www.w3.org/2000/svg">
<g clip-path="url(#clip0_300_2663)">
<rect x="-9.97448" y="5.33945" width="228.293" height="1746.48" transform="matrix(0.957121 0.28969 0.28969 -0.957121 -68.7714 1268.26)" fill="url(#paint0_linear_300_2663)" stroke="black" stroke-width="16"/>
<rect x="-9.79796" y="5.65685" width="228.293" height="1746.48" transform="matrix(0.965926 0.258819 0.258819 -0.965926 844.843 1279.48)" fill="url(#paint1_linear_300_2663)" stroke="black" stroke-width="16"/>
<rect x="-5.95348" y="9.62061" width="228.293" height="1746.48" transform="matrix(0.97338 -0.229196 -0.229196 -0.97338 1778.91 1341.69)" fill="url(#paint2_linear_300_2663)" stroke="black" stroke-width="16"/>
<rect x="-5.10699" y="10.0955" width="228.293" height="1746.48" transform="matrix(0.950154 -0.31178 -0.31178 -0.950154 963.323 1330.84)" fill="url(#paint3_linear_300_2663)" stroke="black" stroke-width="16"/>
</g>
<defs>
<linearGradient id="paint0_linear_300_2663" x1="106.147" y1="0" x2="106.147" y2="1730.48" gradientUnits="userSpaceOnUse">
<stop stop-color="#FF8F01"/>
<stop offset="1" stop-color="#FF1A01"/>
</linearGradient>
<linearGradient id="paint1_linear_300_2663" x1="106.147" y1="0" x2="106.147" y2="1730.48" gradientUnits="userSpaceOnUse">
<stop stop-color="#FF8F01"/>
<stop offset="1" stop-color="#FF1A01"/>
</linearGradient>
<linearGradient id="paint2_linear_300_2663" x1="106.147" y1="0" x2="106.147" y2="1730.48" gradientUnits="userSpaceOnUse">
<stop stop-color="#FFFB01"/>
<stop offset="1" stop-color="#FFAF01"/>
</linearGradient>
<linearGradient id="paint3_linear_300_2663" x1="106.147" y1="0" x2="106.147" y2="1730.48" gradientUnits="userSpaceOnUse">
<stop stop-color="#FFFB01"/>
<stop offset="1" stop-color="#FFAF01"/>
</linearGradient>
<clipPath id="clip0_300_2663">
<rect width="1920" height="1080" fill="white"/>
</clipPath>
</defs>
</svg>
