<svg width="789" height="253" viewBox="0 0 789 253" fill="none" xmlns="http://www.w3.org/2000/svg">
<rect x="-4.80111" y="-5.1339" width="760.877" height="205.705" rx="55" transform="matrix(0.99962 0.0275567 -0.0393991 0.999224 16.5068 27.3065)" fill="#00F7FF" stroke="black" stroke-width="10"/>
<rect x="-5.35846" y="-4.73113" width="760.578" height="205.816" rx="55" transform="matrix(0.998693 -0.051106 0.072998 0.997332 18.3384 45.7477)" fill="white" stroke="black" stroke-width="10"/>
<path d="M273.876 118.568L266.686 118.936L264.338 86.8614L271.529 86.4934L273.876 118.568ZM282.356 92.4263L254.457 93.854L253.984 87.3913L281.883 85.9636L282.356 92.4263ZM310.358 116.701L303.168 117.069L302.155 103.234C302.034 101.574 301.613 100.426 300.893 99.7906C300.17 99.1228 298.898 98.8355 297.076 98.9287C295.383 99.0154 294.162 99.4303 293.414 100.173C292.664 100.884 292.356 102.149 292.489 103.969L291.578 104.015L290.797 97.28L292.283 97.2039C292.674 96.4151 293.198 95.6835 293.854 95.0093C294.543 94.3334 295.368 93.7786 296.331 93.3449C297.325 92.9096 298.462 92.6592 299.74 92.5938C301.818 92.4875 303.526 92.8165 304.865 93.5809C306.236 94.3436 307.277 95.4275 307.99 96.8326C308.7 98.2058 309.117 99.7381 309.24 101.43L310.358 116.701ZM293.484 117.564L286.342 117.93L283.994 85.8555L291.137 85.49L293.484 117.564ZM325.682 116.397C322.934 116.538 320.627 116.143 318.763 115.214C316.899 114.284 315.467 112.916 314.469 111.109C313.468 109.27 312.876 107.09 312.691 104.569C312.502 101.983 312.818 99.7249 313.639 97.7929C314.491 95.8592 315.791 94.3352 317.538 93.2207C319.285 92.1062 321.405 91.4852 323.898 91.3576C326.326 91.2333 328.42 91.5746 330.18 92.3816C331.971 93.1869 333.372 94.3645 334.384 95.9144C335.425 97.4308 336.023 99.2422 336.177 101.349C336.226 102.019 336.226 102.675 336.177 103.319C336.16 103.96 336.134 104.49 336.101 104.908L315.967 105.939L315.648 101.582L329.646 100.866L329.195 101.273C329.255 100.341 329.087 99.5811 328.691 98.9927C328.324 98.3708 327.746 97.9199 326.956 97.64C326.195 97.3265 325.239 97.1992 324.089 97.2581C322.108 97.3595 320.782 97.8758 320.112 98.807C319.443 99.7383 319.169 101.034 319.29 102.693L319.444 104.8C319.542 106.14 319.766 107.218 320.114 108.033C320.494 108.846 321.098 109.424 321.925 109.766C322.752 110.108 323.884 110.242 325.323 110.169C326.761 110.095 327.788 109.883 328.403 109.531C329.049 109.145 329.345 108.586 329.291 107.851L329.27 107.564L336.365 107.201L336.4 107.68C336.526 109.403 336.17 110.895 335.332 112.155C334.494 113.415 333.251 114.408 331.604 115.133C329.957 115.858 327.983 116.279 325.682 116.397ZM389.939 112.628L382.748 112.996L381.736 99.1613C381.614 97.5018 381.209 96.3532 380.521 95.7158C379.831 95.0463 378.623 94.7558 376.897 94.8441C375.267 94.9275 374.108 95.3072 373.419 95.9831C372.731 96.659 372.451 97.8746 372.58 99.6299L371.683 99.868L370.508 93.6814L371.515 93.6299C371.897 92.7134 372.415 91.9021 373.069 91.1959C373.753 90.4561 374.607 89.8518 375.631 89.383C376.653 88.8822 377.899 88.5942 379.369 88.519C381.446 88.4127 383.154 88.7417 384.493 89.5061C385.833 90.2704 386.858 91.3552 387.571 92.7602C388.281 94.1334 388.697 95.6657 388.821 97.3572L389.939 112.628ZM357.198 114.304L350.055 114.669L348.293 90.5898L354.956 90.2488L355.454 97.0466L355.95 97.2614L357.198 114.304ZM373.592 113.465L366.402 113.833L365.389 99.9978C365.268 98.3383 364.863 97.1898 364.175 96.5523C363.484 95.8828 362.276 95.5923 360.55 95.6806C358.92 95.764 357.745 96.1445 357.025 96.822C356.337 97.4979 356.054 98.6816 356.178 100.373L355.288 100.707L354.162 94.5179L355.552 94.4468C355.932 93.4984 356.447 92.6551 357.099 91.917C357.751 91.1789 358.574 90.5922 359.568 90.1569C360.561 89.6897 361.744 89.4209 363.118 89.3506C365.195 89.2443 366.888 89.5741 368.195 90.3401C369.534 91.1045 370.544 92.19 371.224 93.5968C371.934 94.9699 372.351 96.5022 372.475 98.1937L373.592 113.465ZM405.6 112.307C403.011 112.44 400.753 112.043 398.825 111.117C396.896 110.19 395.368 108.811 394.239 106.979C393.143 105.145 392.502 102.967 392.318 100.446C392.131 97.8926 392.448 95.65 393.269 93.718C394.122 91.7843 395.438 90.2594 397.216 89.1433C398.995 88.0272 401.179 87.4029 403.768 87.2704C406.356 87.138 408.583 87.5366 410.447 88.4663C412.343 89.3943 413.84 90.7753 414.936 92.6092C416.065 94.4415 416.723 96.6342 416.91 99.1873C417.094 101.709 416.76 103.936 415.907 105.87C415.086 107.802 413.802 109.325 412.055 110.439C410.34 111.552 408.189 112.175 405.6 112.307ZM405.138 105.988C407.087 105.889 408.413 105.372 409.114 104.439C409.816 103.507 410.081 101.875 409.911 99.5455C409.738 97.1838 409.235 95.5758 408.403 94.7214C407.57 93.8671 406.179 93.4898 404.23 93.5895C402.281 93.6893 400.939 94.2064 400.206 95.1409C399.504 96.0738 399.24 97.721 399.412 100.083C399.583 102.412 400.084 104.005 400.917 104.859C401.781 105.712 403.188 106.088 405.138 105.988ZM434.063 119.02C431.571 119.147 429.419 118.889 427.607 118.245C425.798 117.633 424.379 116.648 423.349 115.291C422.352 113.933 421.778 112.232 421.628 110.19L428.771 109.824C428.83 110.622 428.987 111.239 429.243 111.674C429.534 112.14 430.037 112.434 430.752 112.558C431.469 112.714 432.498 112.757 433.841 112.688C435.119 112.623 436.068 112.446 436.689 112.158C437.309 111.87 437.707 111.385 437.881 110.704C438.09 110.052 438.149 109.104 438.058 107.86L436.884 91.8224L437.318 91.1755L436.943 86.0532L443.607 85.7123L445.173 107.111C445.362 109.696 445.054 111.842 444.249 113.549C443.478 115.286 442.227 116.6 440.495 117.489C438.796 118.377 436.652 118.887 434.063 119.02ZM430.515 108.005C427.191 108.175 424.578 107.316 422.675 105.427C420.805 103.537 419.747 100.916 419.502 97.5651C419.256 94.2141 419.955 91.4875 421.597 89.3853C423.24 87.2831 425.771 86.1445 429.19 85.9695C430.948 85.8795 432.491 86.1369 433.818 86.7417C435.175 87.313 436.222 88.2525 436.959 89.5602L438.014 89.5062L438.097 95.8928L437.186 95.9394C437.111 94.9181 436.844 94.1149 436.384 93.5298C435.954 92.9111 435.329 92.4786 434.509 92.2323C433.721 91.9843 432.751 91.8898 431.601 91.9486C430.227 92.019 429.17 92.2652 428.431 92.6874C427.69 93.0778 427.186 93.6481 426.92 94.3985C426.654 95.1489 426.562 96.0826 426.644 97.1996C426.705 98.0294 426.839 98.7593 427.045 99.3894C427.283 100.018 427.61 100.53 428.024 100.925C428.469 101.319 429.035 101.594 429.72 101.751C430.437 101.907 431.291 101.959 432.282 101.908C433.432 101.85 434.396 101.656 435.174 101.328C435.952 101 436.511 100.523 436.85 99.8968C437.219 99.2372 437.366 98.3968 437.291 97.3756L438.393 97.3191L438.887 104.069L437.497 104.14C437.022 105.094 436.186 105.953 434.991 106.719C433.828 107.483 432.336 107.912 430.515 108.005ZM462.198 117.58C459.706 117.707 457.554 117.449 455.742 116.805C453.933 116.193 452.514 115.208 451.484 113.852C450.487 112.493 449.913 110.793 449.764 108.75L456.906 108.385C456.965 109.182 457.122 109.799 457.378 110.234C457.669 110.7 458.172 110.995 458.887 111.118C459.604 111.274 460.633 111.317 461.976 111.249C463.254 111.183 464.203 111.006 464.824 110.718C465.444 110.43 465.842 109.945 466.017 109.264C466.225 108.612 466.284 107.664 466.193 106.42L465.019 90.3827L465.453 89.7358L465.078 84.6135L471.742 84.2725L473.308 105.671C473.497 108.256 473.189 110.402 472.384 112.109C471.613 113.847 470.362 115.16 468.63 116.049C466.931 116.937 464.787 117.447 462.198 117.58ZM458.65 106.566C455.326 106.736 452.713 105.876 450.81 103.988C448.94 102.097 447.882 99.4764 447.637 96.1254C447.391 92.7743 448.09 90.0477 449.732 87.9455C451.375 85.8433 453.906 84.7047 457.325 84.5297C459.083 84.4398 460.626 84.6972 461.953 85.302C463.31 85.8732 464.357 86.8127 465.094 88.1204L466.149 88.0664L466.232 94.453L465.321 94.4996C465.246 93.4784 464.979 92.6752 464.519 92.0901C464.089 91.4714 463.464 91.0389 462.644 90.7925C461.856 90.5446 460.886 90.45 459.736 90.5089C458.362 90.5792 457.305 90.8255 456.566 91.2477C455.825 91.638 455.321 92.2084 455.055 92.9587C454.79 93.7091 454.697 94.6428 454.779 95.7599C454.84 96.5896 454.974 97.3196 455.18 97.9497C455.419 98.5782 455.745 99.09 456.159 99.4853C456.604 99.8789 457.17 100.154 457.855 100.311C458.572 100.467 459.426 100.519 460.417 100.469C461.567 100.41 462.531 100.216 463.309 99.8882C464.087 99.5601 464.646 99.083 464.985 98.457C465.354 97.7975 465.501 96.9571 465.426 95.9358L466.528 95.8794L467.023 102.629L465.632 102.7C465.157 103.654 464.322 104.513 463.127 105.279C461.964 106.044 460.471 106.472 458.65 106.566ZM482.7 80.9728L475.654 81.3334L475.172 76.0724L482.315 75.7069L482.7 80.9728ZM484.806 107.774L477.616 108.142L475.853 84.0621L483.044 83.6941L484.806 107.774ZM512.828 106.34L505.637 106.708L504.624 92.8728C504.503 91.2132 504.082 90.0655 503.362 89.4296C502.639 88.7619 501.367 88.4746 499.546 88.5678C498.395 88.6267 497.463 88.8185 496.749 89.1434C496.067 89.4666 495.576 89.9882 495.276 90.7084C494.973 91.3965 494.866 92.347 494.955 93.5598L493.948 93.6113L492.918 87.4174L494.308 87.3462C494.688 86.3978 495.203 85.5546 495.855 84.8165C496.539 84.0767 497.394 83.4884 498.42 83.0514C499.445 82.5826 500.66 82.3122 502.066 82.2402C504.175 82.1323 505.915 82.4597 507.286 83.2224C508.657 83.9851 509.699 85.069 510.411 86.4741C511.153 87.8457 511.586 89.3772 511.71 91.0686L512.828 106.34ZM495.954 107.203L488.811 107.569L487.049 83.4892L493.712 83.1482L494.209 89.946L494.706 90.1609L495.954 107.203ZM529.61 114.13C527.117 114.258 524.965 114 523.154 113.355C521.345 112.743 519.926 111.759 518.896 110.402C517.898 109.043 517.325 107.343 517.175 105.3L524.318 104.935C524.376 105.733 524.534 106.349 524.79 106.785C525.081 107.25 525.584 107.545 526.298 107.669C527.015 107.824 528.045 107.868 529.387 107.799C530.666 107.733 531.615 107.557 532.236 107.269C532.856 106.981 533.254 106.496 533.428 105.814C533.637 105.163 533.696 104.215 533.605 102.97L532.431 86.933L532.865 86.2861L532.49 81.1638L539.153 80.8229L540.72 102.222C540.909 104.807 540.601 106.953 539.796 108.66C539.025 110.397 537.773 111.71 536.042 112.6C534.343 113.488 532.199 113.998 529.61 114.13ZM526.061 103.116C522.738 103.286 520.125 102.427 518.222 100.538C516.352 98.6475 515.294 96.0267 515.048 92.6757C514.803 89.3247 515.502 86.598 517.144 84.4958C518.787 82.3936 521.318 81.255 524.737 81.0801C526.495 80.9901 528.037 81.2475 529.365 81.8523C530.722 82.4236 531.769 83.363 532.506 84.6707L533.561 84.6168L533.643 91.0034L532.733 91.05C532.658 90.0287 532.391 89.2255 531.931 88.6404C531.5 88.0217 530.875 87.5892 530.055 87.3429C529.267 87.0949 528.298 87.0003 527.148 87.0592C525.773 87.1295 524.717 87.3758 523.978 87.798C523.237 88.1884 522.733 88.7587 522.467 89.5091C522.201 90.2595 522.109 91.1932 522.191 92.3102C522.252 93.14 522.385 93.8699 522.592 94.5C522.83 95.1285 523.157 95.6404 523.57 96.0357C524.016 96.4293 524.582 96.7047 525.267 96.8618C525.984 97.0173 526.838 97.0697 527.829 97.019C528.979 96.9602 529.943 96.7667 530.721 96.4386C531.499 96.1104 532.058 95.6334 532.397 95.0074C532.765 94.3478 532.912 93.5074 532.838 92.4861L533.94 92.4297L534.434 99.1797L533.044 99.2508C532.569 100.204 531.733 101.064 530.538 101.83C529.375 102.594 527.883 103.023 526.061 103.116ZM292.901 176.657L285.711 177.025L283.363 144.951L293.478 144.433L300.183 159.13L303.375 167.232L303.854 167.207L305.792 158.843L310.064 143.584L320.179 143.067L322.527 175.141L315.336 175.509L314.225 160.334L314.157 154.138L313.629 154.165L312.219 160.532L308.32 173.658L299.595 174.104L293.811 161.474L291.435 155.301L290.955 155.326L291.791 161.482L292.901 176.657ZM338.118 174.824C335.529 174.956 333.271 174.559 331.343 173.633C329.414 172.706 327.886 171.327 326.757 169.495C325.661 167.661 325.02 165.483 324.836 162.962C324.649 160.409 324.966 158.166 325.787 156.234C326.64 154.301 327.956 152.776 329.734 151.66C331.513 150.543 333.697 149.919 336.286 149.787C338.874 149.654 341.101 150.053 342.965 150.982C344.861 151.911 346.358 153.292 347.454 155.125C348.583 156.958 349.241 159.15 349.428 161.704C349.612 164.225 349.278 166.452 348.425 168.386C347.604 170.318 346.32 171.841 344.573 172.956C342.858 174.069 340.707 174.691 338.118 174.824ZM337.656 168.505C339.605 168.405 340.931 167.889 341.632 166.956C342.334 166.023 342.599 164.392 342.429 162.062C342.256 159.7 341.753 158.092 340.921 157.238C340.088 156.383 338.697 156.006 336.748 156.106C334.799 156.206 333.457 156.723 332.724 157.657C332.022 158.59 331.758 160.237 331.93 162.599C332.101 164.929 332.602 166.521 333.435 167.375C334.299 168.228 335.706 168.604 337.656 168.505ZM377.606 172.322L370.416 172.69L369.403 158.855C369.281 157.196 368.861 156.048 368.14 155.412C367.418 154.745 366.146 154.457 364.324 154.55C363.174 154.609 362.242 154.801 361.528 155.126C360.845 155.449 360.354 155.971 360.054 156.691C359.752 157.379 359.645 158.33 359.734 159.542L358.727 159.594L357.696 153.4L359.086 153.329C359.466 152.38 359.982 151.537 360.633 150.799C361.317 150.059 362.172 149.471 363.199 149.034C364.223 148.565 365.438 148.295 366.844 148.223C368.954 148.115 370.694 148.442 372.065 149.205C373.436 149.968 374.477 151.052 375.19 152.457C375.932 153.828 376.365 155.36 376.488 157.051L377.606 172.322ZM360.732 173.186L353.59 173.551L351.827 149.472L358.49 149.131L358.988 155.929L359.485 156.144L360.732 173.186ZM394.389 180.113C391.896 180.24 389.744 179.982 387.932 179.338C386.123 178.726 384.704 177.741 383.675 176.385C382.677 175.026 382.103 173.326 381.954 171.283L389.096 170.918C389.155 171.715 389.312 172.332 389.569 172.767C389.859 173.233 390.362 173.528 391.077 173.651C391.794 173.807 392.824 173.85 394.166 173.782C395.444 173.716 396.394 173.539 397.014 173.251C397.635 172.963 398.032 172.478 398.207 171.797C398.416 171.145 398.475 170.197 398.384 168.953L397.21 152.916L397.644 152.269L397.269 147.146L403.932 146.806L405.498 168.204C405.687 170.789 405.379 172.935 404.574 174.642C403.803 176.38 402.552 177.693 400.821 178.582C399.121 179.47 396.977 179.98 394.389 180.113ZM390.84 169.099C387.516 169.269 384.903 168.409 383.001 166.521C381.13 164.63 380.072 162.009 379.827 158.658C379.582 155.307 380.28 152.581 381.923 150.479C383.565 148.376 386.096 147.238 389.516 147.063C391.273 146.973 392.816 147.23 394.143 147.835C395.5 148.406 396.548 149.346 397.285 150.653L398.339 150.599L398.422 156.986L397.511 157.033C397.436 156.011 397.169 155.208 396.709 154.623C396.279 154.004 395.654 153.572 394.834 153.326C394.046 153.078 393.077 152.983 391.926 153.042C390.552 153.112 389.495 153.358 388.756 153.781C388.015 154.171 387.512 154.741 387.246 155.492C386.98 156.242 386.888 157.176 386.97 158.293C387.03 159.123 387.164 159.853 387.37 160.483C387.609 161.111 387.935 161.623 388.349 162.018C388.795 162.412 389.36 162.687 390.045 162.844C390.762 163 391.616 163.052 392.607 163.002C393.758 162.943 394.722 162.749 395.5 162.421C396.278 162.093 396.836 161.616 397.175 160.99C397.544 160.33 397.691 159.49 397.616 158.469L398.719 158.412L399.213 165.162L397.823 165.233C397.347 166.187 396.512 167.046 395.317 167.812C394.154 168.577 392.662 169.005 390.84 169.099ZM421.353 170.564C418.764 170.697 416.506 170.3 414.577 169.373C412.649 168.447 411.121 167.068 409.992 165.235C408.896 163.401 408.255 161.224 408.071 158.703C407.884 156.149 408.201 153.907 409.022 151.975C409.875 150.041 411.19 148.516 412.969 147.4C414.748 146.284 416.932 145.66 419.52 145.527C422.109 145.395 424.335 145.793 426.2 146.723C428.096 147.651 429.593 149.032 430.689 150.866C431.818 152.698 432.476 154.891 432.662 157.444C432.847 159.965 432.513 162.193 431.66 164.127C430.839 166.059 429.555 167.582 427.808 168.696C426.093 169.809 423.942 170.432 421.353 170.564ZM420.89 164.245C422.84 164.145 424.165 163.629 424.867 162.696C425.569 161.763 425.834 160.132 425.664 157.802C425.491 155.441 424.988 153.833 424.156 152.978C423.323 152.124 421.932 151.747 419.983 151.846C418.033 151.946 416.692 152.463 415.958 153.398C415.257 154.331 414.992 155.978 415.165 158.34C415.336 160.669 415.837 162.261 416.67 163.116C417.534 163.969 418.941 164.345 420.89 164.245ZM448.645 169.168C446.057 169.3 443.798 168.903 441.87 167.977C439.942 167.05 438.413 165.671 437.285 163.839C436.188 162.005 435.548 159.827 435.363 157.306C435.176 154.753 435.493 152.51 436.314 150.578C437.167 148.645 438.483 147.12 440.262 146.004C442.04 144.887 444.224 144.263 446.813 144.131C449.401 143.998 451.628 144.397 453.492 145.326C455.389 146.255 456.885 147.636 457.982 149.469C459.11 151.302 459.768 153.494 459.955 156.048C460.139 158.569 459.805 160.796 458.952 162.73C458.131 164.662 456.847 166.185 455.101 167.3C453.386 168.413 451.234 169.035 448.645 169.168ZM448.183 162.849C450.132 162.749 451.458 162.233 452.159 161.3C452.861 160.367 453.126 158.735 452.956 156.406C452.783 154.044 452.28 152.436 451.448 151.582C450.616 150.727 449.225 150.35 447.275 150.45C445.326 150.55 443.984 151.067 443.251 152.001C442.549 152.934 442.285 154.581 442.458 156.943C442.628 159.273 443.13 160.865 443.962 161.719C444.826 162.572 446.233 162.948 448.183 162.849ZM475.027 167.818C471.256 168.011 468.375 167.437 466.384 166.098C464.426 164.756 463.34 162.634 463.127 159.729L463.117 159.586L469.972 159.235L470.046 160.24C470.088 160.815 470.264 161.254 470.575 161.559C470.886 161.863 471.366 162.063 472.014 162.158C472.692 162.219 473.607 162.22 474.757 162.161C475.748 162.111 476.479 162.025 476.952 161.905C477.422 161.753 477.729 161.561 477.872 161.329C478.013 161.066 478.07 160.743 478.042 160.36C477.993 159.689 477.704 159.256 477.177 159.058C476.679 158.828 475.62 158.61 474.001 158.404L470.309 157.92C468.722 157.713 467.364 157.35 466.235 156.831C465.107 156.313 464.22 155.589 463.574 154.661C462.927 153.701 462.548 152.471 462.438 150.971C462.275 148.737 463.02 146.873 464.675 145.379C466.36 143.851 468.928 142.999 472.379 142.822C474.361 142.721 476.157 142.933 477.767 143.46C479.377 143.986 480.674 144.832 481.658 145.999C482.673 147.165 483.248 148.657 483.381 150.476L483.43 151.146L476.575 151.497L476.526 150.827C476.486 150.284 476.358 149.842 476.14 149.501C475.92 149.128 475.533 148.876 474.978 148.744C474.421 148.58 473.631 148.524 472.608 148.577C471.17 148.65 470.223 148.859 469.767 149.203C469.341 149.513 469.148 149.955 469.19 150.53C469.232 151.104 469.455 151.509 469.857 151.745C470.259 151.981 471.19 152.205 472.649 152.419L477.126 153.103C478.843 153.335 480.252 153.744 481.353 154.328C482.452 154.88 483.277 155.623 483.826 156.556C484.407 157.487 484.746 158.607 484.842 159.916C485.008 162.181 484.245 164.03 482.553 165.462C480.891 166.861 478.383 167.646 475.027 167.818ZM499.853 166.547C497.104 166.688 494.798 166.293 492.934 165.364C491.069 164.434 489.638 163.066 488.639 161.259C487.639 159.42 487.046 157.24 486.862 154.719C486.672 152.134 486.988 149.875 487.809 147.943C488.662 146.009 489.962 144.485 491.709 143.371C493.456 142.256 495.575 141.635 498.068 141.508C500.497 141.383 502.591 141.725 504.35 142.532C506.141 143.337 507.543 144.515 508.554 146.065C509.596 147.581 510.193 149.392 510.348 151.499C510.397 152.169 510.397 152.826 510.347 153.469C510.33 154.11 510.305 154.64 510.271 155.058L490.138 156.089L489.819 151.732L503.816 151.016L503.365 151.424C503.425 150.492 503.257 149.731 502.861 149.143C502.495 148.521 501.917 148.07 501.126 147.79C500.366 147.477 499.41 147.349 498.259 147.408C496.278 147.51 494.953 148.026 494.283 148.957C493.613 149.888 493.339 151.184 493.461 152.843L493.615 154.95C493.713 156.29 493.936 157.368 494.285 158.183C494.665 158.996 495.269 159.574 496.096 159.916C496.922 160.258 498.055 160.393 499.493 160.319C500.931 160.245 501.958 160.033 502.574 159.681C503.219 159.295 503.515 158.736 503.462 158.002L503.441 157.714L510.535 157.351L510.57 157.83C510.696 159.553 510.341 161.045 509.503 162.305C508.664 163.566 507.422 164.558 505.775 165.283C504.128 166.008 502.154 166.43 499.853 166.547ZM522.97 164.884L513.958 165.345L513.338 156.872L522.35 156.41L522.97 164.884Z" fill="black"/>
</svg>
