<svg width="783" height="219" viewBox="0 0 783 219" fill="none" xmlns="http://www.w3.org/2000/svg">
<rect x="7" y="7" width="769" height="205" rx="57" fill="url(#paint0_linear_311_3425)" stroke="black" stroke-width="14"/>
<path d="M192.133 147.249L169.093 113.775L165.812 109.009L139.077 70.1657H150.577L172.198 101.58L175.479 106.345L203.633 147.249H192.133ZM208.388 143.98L179.369 101.821L176.088 97.0528L155.33 66.8951L153.609 64.3959H128.102L134.322 73.4355L161.923 113.538L165.204 118.301L187.38 150.523L189.101 153.019H214.609L208.388 143.98Z" fill="black"/>
<path d="M165.81 109.009L169.092 113.775L165.202 118.301L135.359 153.019H128L161.921 113.538L165.81 109.009Z" fill="black"/>
<path d="M211.535 64.3957L179.366 101.821L175.476 106.344L172.195 101.579L176.085 97.0526L197.876 71.6892L204.176 64.3957H211.535Z" fill="black"/>
<path d="M286.328 140H271.928V75.68H286.328V140ZM307.064 88.64H251.192V75.68H307.064V88.64ZM342.473 140H321.353L308.393 75.68H325.097L329.993 104.672L332.297 125.888H333.353L337.289 104.672L344.873 75.68H365.321L372.905 104.48L376.937 125.888H377.993L380.297 104.48L385.193 75.68H401.513L388.553 140H367.529L359.753 111.488L355.433 91.136H354.473L350.153 111.488L342.473 140ZM419.631 140H405.231V75.68H419.631V140ZM458.078 140H443.678V75.68H458.078V140ZM478.814 88.64H422.942V75.68H478.814V88.64ZM516.672 140H502.272V75.68H516.672V140ZM537.408 88.64H481.536V75.68H537.408V88.64ZM555.1 140H540.7V75.68H555.1V140ZM589.756 140H544.732V127.04H589.756V140ZM588.316 114.08H544.732V101.216H588.316V114.08ZM589.756 88.64H544.732V75.68H589.756V88.64ZM611.725 140H597.325V75.68H626.893C632.013 75.68 636.333 76.448 639.853 77.984C643.437 79.52 646.157 81.76 648.013 84.704C649.869 87.584 650.797 91.104 650.797 95.264C650.797 98.72 650.221 101.728 649.069 104.288C647.917 106.784 646.125 108.768 643.693 110.24C641.325 111.648 638.285 112.544 634.573 112.928V113.888C637.325 114.72 639.501 115.968 641.101 117.632C642.701 119.296 644.109 121.376 645.325 123.872L653.485 140H636.685L629.101 125.12C628.141 123.264 627.181 121.76 626.221 120.608C625.325 119.392 624.205 118.528 622.861 118.016C621.581 117.44 619.789 117.152 617.484 117.152H611.725V140ZM611.725 88.64V105.248H627.565C630.957 105.248 633.293 104.64 634.573 103.424C635.853 102.208 636.493 100.032 636.493 96.896C636.493 93.824 635.853 91.68 634.573 90.464C633.293 89.248 630.957 88.64 627.565 88.64H611.725Z" fill="black"/>
<defs>
<linearGradient id="paint0_linear_311_3425" x1="14" y1="109.5" x2="1072.55" y2="500.977" gradientUnits="userSpaceOnUse">
<stop stop-color="#FF8C00"/>
<stop offset="1" stop-color="#FF0000"/>
</linearGradient>
</defs>
</svg>
