<svg width="783" height="219" viewBox="0 0 783 219" fill="none" xmlns="http://www.w3.org/2000/svg">
<rect x="7" y="7" width="769" height="205" rx="57" fill="url(#paint0_linear_311_3426)" stroke="black" stroke-width="14"/>
<path d="M179.788 65.9445C179.401 64.7929 178.939 64.4899 178.217 64.202C176.639 63.611 173.966 64.505 173.966 64.505C173.966 64.505 79.3384 98.8708 73.9324 102.674C72.7684 103.492 72.3784 103.977 72.1849 104.538C71.2504 107.235 74.1619 108.432 74.1619 108.432L98.552 116.463C98.552 116.463 99.461 116.599 99.785 116.387C105.333 112.841 155.609 80.7788 158.509 79.7029C158.966 79.5666 159.305 79.7181 159.215 80.0363C158.054 84.1578 114.387 123.357 114.387 123.357C114.387 123.357 114.221 123.569 114.116 123.812L114.059 123.781L111.783 148.222C111.783 148.222 110.829 155.708 118.241 148.222C123.47 142.934 128.53 138.51 131.062 136.373C139.448 142.222 148.474 148.692 152.369 152.071C154.325 153.768 155.962 154.041 157.309 153.995C161.006 153.859 162.038 149.753 162.038 149.753C162.038 149.753 179.282 79.6423 179.858 70.2478C179.915 69.3235 179.993 68.7477 179.999 68.1113C180.01 67.2324 179.929 66.3536 179.788 65.9445Z" fill="black"/>
<path d="M248.328 140H233.928V75.68H248.328V140ZM269.064 88.64H213.192V75.68H269.064V88.64ZM286.756 140H272.356V75.68H286.756V140ZM321.412 140H276.388V127.04H321.412V140ZM319.972 114.08H276.388V101.216H319.972V114.08ZM321.412 88.64H276.388V75.68H321.412V88.64ZM343.381 140H328.981V75.68H343.381V140ZM376.597 140H333.013V127.04H376.597V140ZM395.506 140H381.106V75.68H395.506V140ZM430.162 140H385.138V127.04H430.162V140ZM428.722 114.08H385.138V101.216H428.722V114.08ZM430.162 88.64H385.138V75.68H430.162V88.64ZM463.95 140.96C457.806 140.96 452.622 139.648 448.398 137.024C444.174 134.336 440.942 130.528 438.702 125.6C436.526 120.608 435.438 114.688 435.438 107.84C435.438 101.12 436.686 95.296 439.182 90.368C441.678 85.376 445.262 81.536 449.934 78.848C454.606 76.096 460.206 74.72 466.734 74.72C473.134 74.72 478.51 75.744 482.862 77.792C487.214 79.776 490.51 82.592 492.75 86.24C494.99 89.888 496.11 94.272 496.11 99.392V99.872H480.846V99.488C480.846 95.392 479.758 92.576 477.582 91.04C475.406 89.44 471.694 88.64 466.446 88.64C462.798 88.64 459.822 89.184 457.518 90.272C455.214 91.36 453.518 93.312 452.43 96.128C451.342 98.88 450.798 102.784 450.798 107.84C450.798 112.96 451.374 116.928 452.526 119.744C453.678 122.56 455.502 124.512 457.998 125.6C460.494 126.688 463.758 127.232 467.79 127.232C471.182 127.232 473.934 126.976 476.046 126.464C478.222 125.952 479.822 124.992 480.846 123.584C481.934 122.176 482.478 120.16 482.478 117.536V113.216H496.302V114.656L484.014 130.208H482.382C481.742 131.872 480.686 133.536 479.214 135.2C477.806 136.864 475.854 138.24 473.358 139.328C470.862 140.416 467.726 140.96 463.95 140.96ZM496.302 140H482.958V122.624L482.478 121.472V107.552H496.302V140ZM496.302 117.824H464.91V105.824H496.302V117.824ZM519.256 140H504.856V75.68H534.424C539.544 75.68 543.864 76.448 547.384 77.984C550.968 79.52 553.688 81.76 555.544 84.704C557.4 87.584 558.328 91.104 558.328 95.264C558.328 98.72 557.752 101.728 556.6 104.288C555.448 106.784 553.656 108.768 551.224 110.24C548.856 111.648 545.816 112.544 542.104 112.928V113.888C544.856 114.72 547.032 115.968 548.632 117.632C550.232 119.296 551.64 121.376 552.856 123.872L561.016 140H544.216L536.632 125.12C535.672 123.264 534.712 121.76 533.752 120.608C532.856 119.392 531.736 118.528 530.392 118.016C529.112 117.44 527.32 117.152 525.016 117.152H519.256V140ZM519.256 88.64V105.248H535.096C538.488 105.248 540.824 104.64 542.104 103.424C543.384 102.208 544.024 100.032 544.024 96.896C544.024 93.824 543.384 91.68 542.104 90.464C540.824 89.248 538.488 88.64 535.096 88.64H519.256ZM576.168 140H561.192L584.904 75.68H605.832L629.544 140H613.896L600.36 102.848L595.656 88.352H594.696L589.8 102.848L576.168 140ZM616.968 125.696H574.344V112.832H616.968V125.696ZM646.943 140H632.543V75.68H652.799L664.031 105.728L669.215 122.24H670.175L675.263 105.728L686.015 75.68H706.271V140H691.871V109.568L692.639 97.184H691.583L687.839 109.76L678.143 135.584H660.671L650.975 109.76L647.135 97.184H646.175L646.943 109.568V140Z" fill="black"/>
<defs>
<linearGradient id="paint0_linear_311_3426" x1="14" y1="109.5" x2="1072.55" y2="500.977" gradientUnits="userSpaceOnUse">
<stop stop-color="#FF8C00"/>
<stop offset="1" stop-color="#FF0000"/>
</linearGradient>
</defs>
</svg>
